#!OML:ASF G:\JayActor3\Patient Classification 1\Patient 1\Session 5\male.ASF
:FULLY-SPECIFIED
:DEGREES
762
root -19.1082 17.749 -4.27009 8.76735 89.6684 -3.51067
lowerback 20.6403 -2.11074 2.06289
upperback 7.68453 -1.87274 -1.04012
thorax -3.30928 -0.665186 -1.8637
lowerneck 6.05399 0.479049 2.34791
upperneck -17.6786 1.3762 0.823806
head -6.35406 0.573159 -0.242026
rclavicle 4.37326e-015 2.60408e-014
rhumerus -28.961 -3.71765 -88.0479
rradius 25.3266
rwrist 4.15351
rhand -21.1743 -9.65915
rfingers 7.12502
rthumb 5.20609 -39.5752
lclavicle 4.37326e-015 2.60408e-014
lhumerus -31.8554 5.84444 82.8964
lradius 27.5232
lwrist 22.204
lhand -19.2101 12.1854
lfingers 7.12502
lthumb 7.1023 42.0462
rfemur -40.1481 6.57709 16.5395
rtibia 32.6801
rfoot 8.55048 -13.0774
rtoes 0.567703
lfemur -13.6463 6.4756 -20.7422
ltibia 44.0452
lfoot 13.9946 -5.06384
ltoes -5.34449
763
root -19.2562 17.71 -4.29339 33.1657 89.5395 21.0817
lowerback 20.6873 -2.09661 1.79028
upperback 7.69632 -1.9073 -1.11155
thorax -3.31622 -0.683602 -1.77624
lowerneck 6.07214 0.501515 2.3774
upperneck -17.6022 1.40598 0.818769
head -6.33257 0.585557 -0.250302
rclavicle 9.14409e-015 -8.74653e-015
rhumerus -28.9431 -3.55943 -88.1394
rradius 25.4261
rwrist 4.13665
rhand -21.2653 -9.6308
rfingers 7.12502
rthumb 5.11822 -39.549
lclavicle 9.14409e-015 -8.74653e-015
lhumerus -31.8964 5.82017 82.9047
lradius 27.5856
lwrist 22.2153
lhand -19.2147 12.1756
lfingers 7.12502
lthumb 7.09792 42.0365
rfemur -40.5525 6.52358 16.2031
rtibia 32.7301
rfoot 8.8411 -13.0915
rtoes 0.933964
lfemur -12.4001 5.93577 -21.0023
ltibia 41.8586
lfoot 13.1494 -5.57628
ltoes -6.61069
764
root -19.4078 17.6708 -4.31784 45.7889 89.3741 33.8898
lowerback 20.7256 -2.08844 1.52123
upperback 7.72217 -1.94805 -1.18335
thorax -3.30359 -0.704276 -1.69008
lowerneck 6.09757 0.520897 2.41491
upperneck -17.5726 1.43392 0.806754
head -6.32712 0.597144 -0.26229
rclavicle 1.96797e-014 1.78906e-014
rhumerus -28.8954 -3.41269 -88.2277
rradius 25.5365
rwrist 4.11395
rhand -21.3941 -9.58974
rfingers 7.12502
rthumb 4.99383 -39.5109
lclavicle 1.96797e-014 1.78906e-014
lhumerus -31.9023 5.81709 82.91
lradius 27.6234
lwrist 22.2038
lhand -19.2284 12.1567
lfingers 7.12502
lthumb 7.08466 42.0182
rfemur -40.9743 6.4692 15.8593
rtibia 32.7555
rfoot 9.16422 -13.1617
rtoes 1.42335
lfemur -11.2436 5.359 -21.2856
ltibia 39.8409
lfoot 11.8963 -6.14672
ltoes -8.82756
765
root -19.5637 17.6321 -4.34314 52.7546 89.2056 41.0219
lowerback 20.7579 -2.0836 1.2629
upperback 7.75758 -1.99022 -1.25273
thorax -3.27756 -0.725138 -1.60733
lowerneck 6.1274 0.536777 2.44513
upperneck -17.5883 1.46083 0.806953
head -6.33699 0.607861 -0.269408
rclavicle 5.56597e-015 -2.78299e-015
rhumerus -28.8282 -3.28119 -88.3131
rradius 25.6653
rwrist 4.07497
rhand -21.569 -9.54458
rfingers 7.12502
rthumb 4.82497 -39.4696
lclavicle 5.56597e-015 -2.78299e-015
lhumerus -31.8795 5.82822 82.9132
lradius 27.6454
lwrist 22.1857
lhand -19.2476 12.151
lfingers 7.12502
lthumb 7.06617 42.0131
rfemur -41.418 6.42461 15.5118
rtibia 32.7382
rfoot 9.51604 -13.3375
rtoes 2.14851
lfemur -10.2262 4.8121 -21.5836
ltibia 38.0437
lfoot 10.3983 -6.63777
ltoes -11.5
766
root -19.724 17.5944 -4.3692 56.3147 89.0498 44.7242
lowerback 20.7912 -2.07958 1.02612
upperback 7.79744 -2.02862 -1.31662
thorax -3.24723 -0.743836 -1.53191
lowerneck 6.15608 0.551171 2.47504
upperneck -17.6417 1.48892 0.813284
head -6.35874 0.618841 -0.274849
rclavicle -8.34896e-015 1.98785e-015
rhumerus -28.7476 -3.17056 -88.3958
rradius 25.8162
rwrist 4.00011
rhand -21.772 -9.49517
rfingers 7.12502
rthumb 4.62888 -39.4246
lclavicle -8.34896e-015 1.98785e-015
lhumerus -31.83 5.84276 82.917
lradius 27.6513
lwrist 22.1835
lhand -19.2909 12.1552
lfingers 7.12502
lthumb 7.02431 42.0186
rfemur -41.8817 6.40442 15.1694
rtibia 32.6582
rfoot 9.91376 -13.6373
rtoes 3.09349
lfemur -9.38138 4.36849 -21.881
ltibia 36.4773
lfoot 8.67585 -6.94049
ltoes -14.572
767
root -19.8887 17.5591 -4.39582 57.1999 88.9162 45.7171
lowerback 20.8322 -2.07146 0.815774
upperback 7.83065 -2.05655 -1.36703
thorax -3.22772 -0.757655 -1.45935
lowerneck 6.18807 0.56702 2.49147
upperneck -17.7245 1.52131 0.832321
head -6.39058 0.631849 -0.274539
rclavicle -1.19271e-014 -5.96354e-015
rhumerus -28.6713 -3.06426 -88.4733
rradius 25.9878
rwrist 3.89852
rhand -22.0019 -9.43659
rfingers 7.12502
rthumb 4.40693 -39.3707
lclavicle -1.19271e-014 -5.96354e-015
lhumerus -31.7709 5.86972 82.9253
lradius 27.6473
lwrist 22.1891
lhand -19.3561 12.149
lfingers 7.12502
lthumb 6.96145 42.0146
rfemur -42.3676 6.41843 14.8456
rtibia 32.4946
rfoot 10.3851 -14.0722
rtoes 4.19874
lfemur -8.72472 4.08667 -22.16
ltibia 35.1203
lfoot 6.95246 -7.06218
ltoes -17.2166
768
root -20.0576 17.5271 -4.42319 55.932 88.8066 44.5206
lowerback 20.8859 -2.05795 0.639898
upperback 7.85343 -2.07126 -1.40445
thorax -3.22595 -0.765254 -1.39521
lowerneck 6.23296 0.576509 2.5136
upperneck -17.8375 1.5461 0.843456
head -6.4343 0.641227 -0.277398
rclavicle -5.56597e-015 6.36111e-015
rhumerus -28.6036 -2.95782 -88.5483
rradius 26.174
rwrist 3.77599
rhand -22.2342 -9.37785
rfingers 7.12502
rthumb 4.1826 -39.3165
lclavicle -5.56597e-015 6.36111e-015
lhumerus -31.7098 5.88788 82.942
lradius 27.6416
lwrist 22.2183
lhand -19.457 12.1636
lfingers 7.12502
lthumb 6.86397 42.0323
rfemur -42.8617 6.46915 14.5418
rtibia 32.2238
rfoot 10.9135 -14.6605
rtoes 5.53328
lfemur -8.25256 3.99969 -22.411
ltibia 33.9432
lfoot 5.28274 -7.03811
ltoes -19.4358
769
root -20.2302 17.4993 -4.45147 52.706 88.7141 41.3236
lowerback 20.9469 -2.03822 0.499689
upperback 7.86575 -2.07173 -1.42881
thorax -3.23947 -0.766135 -1.34042
lowerneck 6.26901 0.589324 2.53567
upperneck -17.9588 1.57519 0.850291
head -6.47908 0.653179 -0.281972
rclavicle 1.92821e-014 1.39149e-014
rhumerus -28.5414 -2.84325 -88.6225
rradius 26.3674
rwrist 3.65433
rhand -22.4599 -9.31048
rfingers 7.12502
rthumb 3.96464 -39.2533
lclavicle 1.92821e-014 1.39149e-014
lhumerus -31.6434 5.89583 82.9703
lradius 27.6357
lwrist 22.2689
lhand -19.592 12.2303
lfingers 7.12502
lthumb 6.73371 42.1033
rfemur -43.3594 6.55149 14.258
rtibia 31.8266
rfoot 11.5136 -15.4136
rtoes 7.13414
lfemur -7.96378 4.11394 -22.6292
ltibia 32.927
lfoot 3.72405 -6.92736
ltoes -21.3378
770
root -20.4057 17.4768 -4.48106 47.9403 88.6218 36.5422
lowerback 21.0101 -2.01353 0.388964
upperback 7.86891 -2.06101 -1.44395
thorax -3.26434 -0.761784 -1.29499
lowerneck 6.2959 0.602827 2.56439
upperneck -18.0879 1.60429 0.845059
head -6.52463 0.665757 -0.291531
rclavicle -2.10712e-014 7.95139e-016
rhumerus -28.4749 -2.71464 -88.6973
rradius 26.5623
rwrist 3.53624
rhand -22.6429 -9.24468
rfingers 7.12502
rthumb 3.78794 -39.1908
lclavicle -2.10712e-014 7.95139e-016
lhumerus -31.5729 5.89972 83.0064
lradius 27.6324
lwrist 22.3149
lhand -19.7352 12.3158
lfingers 7.12502
lthumb 6.59548 42.1931
rfemur -43.8527 6.65563 13.9832
rtibia 31.2901
rfoot 12.182 -16.3376
rtoes 8.97385
lfemur -7.85305 4.42657 -22.8252
ltibia 32.0674
lfoot 2.21352 -6.73258
ltoes -23.2555
771
root -20.5834 17.4601 -4.51212 42.8946 88.5107 31.4343
lowerback 21.0665 -1.98612 0.290818
upperback 7.86519 -2.04546 -1.45833
thorax -3.29348 -0.755329 -1.25707
lowerneck 6.31214 0.615925 2.60195
upperneck -18.2242 1.63318 0.833438
head -6.57057 0.678295 -0.304615
rclavicle 1.07344e-014 7.95139e-016
rhumerus -28.4019 -2.57138 -88.7765
rradius 26.755
rwrist 3.44128
rhand -22.7873 -9.20654
rfingers 7.12502
rthumb 3.64849 -39.1551
lclavicle 1.07344e-014 7.95139e-016
lhumerus -31.5028 5.88494 83.052
lradius 27.6429
lwrist 22.3605
lhand -19.8789 12.3667
lfingers 7.12502
lthumb 6.45668 42.2483
rfemur -44.3406 6.75775 13.6915
rtibia 30.6195
rfoot 12.9148 -17.4351
rtoes 11.0151
lfemur -7.91849 4.92423 -23.0259
ltibia 31.3659
lfoot 0.847108 -6.49919
ltoes -25.002
772
root -20.7624 17.4493 -4.54454 38.29 88.3724 26.7214
lowerback 21.1107 -1.95705 0.192934
upperback 7.85732 -2.02875 -1.47532
thorax -3.32104 -0.748566 -1.22256
lowerneck 6.30857 0.631465 2.64076
upperneck -18.3635 1.66585 0.823017
head -6.61399 0.692783 -0.317768
rclavicle -1.19271e-014 -9.14409e-015
rhumerus -28.3129 -2.42289 -88.8583
rradius 26.9372
rwrist 3.37351
rhand -22.8876 -9.16982
rfingers 7.12502
rthumb 3.55164 -39.12
lclavicle -1.19271e-014 -9.14409e-015
lhumerus -31.4271 5.85143 83.1078
lradius 27.665
lwrist 22.3984
lhand -20.0085 12.3718
lfingers 7.12502
lthumb 6.3316 42.2571
rfemur -44.828 6.85283 13.3634
rtibia 29.8354
rfoot 13.6854 -18.7025
rtoes 13.1898
lfemur -8.15792 5.58264 -23.242
ltibia 30.818
lfoot -0.366039 -6.27674
ltoes -26.522
773
root -20.9419 17.4434 -4.57779 35.0442 88.2098 23.3227
lowerback 21.1357 -1.92565 0.0771523
upperback 7.84531 -2.0136 -1.49822
thorax -3.34288 -0.742988 -1.18414
lowerneck 6.2989 0.647543 2.67277
upperneck -18.5149 1.70172 0.826489
head -6.66044 0.708295 -0.325679
rclavicle -3.97569e-016 -1.19271e-014
rhumerus -28.2194 -2.27848 -88.9389
rradius 27.1167
rwrist 3.32497
rhand -22.938 -9.15176
rfingers 7.12502
rthumb 3.50297 -39.1027
lclavicle -3.97569e-016 -1.19271e-014
lhumerus -31.3484 5.79487 83.1751
lradius 27.6988
lwrist 22.4186
lhand -20.1082 12.3001
lfingers 7.12502
lthumb 6.23537 42.1884
rfemur -45.3251 6.94059 12.9677
rtibia 28.9802
rfoot 14.5 -20.0629
rtoes 15.3302
lfemur -8.56883 6.35511 -23.49
ltibia 30.4106
lfoot -1.37624 -6.12433
ltoes -27.6207
774
root -21.1211 17.4414 -4.61133 33.2798 88.0284 21.3685
lowerback 21.1448 -1.89037 -0.0640049
upperback 7.82937 -1.99937 -1.53024
thorax -3.36039 -0.738229 -1.14107
lowerneck 6.28138 0.664635 2.70144
upperneck -18.6701 1.74159 0.844125
head -6.70694 0.724982 -0.328826
rclavicle 7.15625e-015 2.22639e-014
rhumerus -28.1313 -2.15159 -89.018
rradius 27.2956
rwrist 3.28265
rhand -22.953 -9.14073
rfingers 7.12502
rthumb 3.4885 -39.0919
lclavicle 7.15625e-015 2.22639e-014
lhumerus -31.2651 5.71023 83.2489
lradius 27.7354
lwrist 22.4161
lhand -20.1626 12.1727
lfingers 7.12502
lthumb 6.18283 42.0625
rfemur -45.8352 7.03865 12.4832
rtibia 28.1084
rfoot 15.3812 -21.3704
rtoes 17.1421
lfemur -9.13332 7.19315 -23.7751
ltibia 30.1223
lfoot -2.1419 -6.10264
ltoes -28.0643
775
root -21.2994 17.4422 -4.64428 32.6462 87.8372 20.514
lowerback 21.1369 -1.84709 -0.231223
upperback 7.80975 -1.98059 -1.56726
thorax -3.37239 -0.731647 -1.08988
lowerneck 6.27108 0.680253 2.71699
upperneck -18.8395 1.78342 0.885552
head -6.7597 0.741541 -0.322484
rclavicle -2.78299e-015 9.14409e-015
rhumerus -28.0595 -2.0553 -89.0898
rradius 27.4768
rwrist 3.23591
rhand -22.944 -9.13245
rfingers 7.12502
rthumb 3.49716 -39.0835
lclavicle -2.78299e-015 9.14409e-015
lhumerus -31.1745 5.60503 83.3292
lradius 27.7699
lwrist 22.3895
lhand -20.1655 12.0203
lfingers 7.12502
lthumb 6.17999 41.9102
rfemur -46.3656 7.17339 11.905
rtibia 27.2866
rfoot 16.2826 -22.4549
rtoes 18.3549
lfemur -9.82406 8.05033 -24.0858
ltibia 29.9316
lfoot -2.6771 -6.25178
ltoes -27.8964
